<?xml version="1.0" encoding="UTF-8" standalone="no"?>
<!DOCTYPE svg PUBLIC "-//W3C//DTD SVG 1.1//EN" "http://www.w3.org/Graphics/SVG/1.1/DTD/svg11.dtd">
<svg width="100%" height="100%" viewBox="0 0 831 202" version="1.1" xmlns="http://www.w3.org/2000/svg" xmlns:xlink="http://www.w3.org/1999/xlink" xml:space="preserve" xmlns:serif="http://www.serif.com/" style="fill-rule:evenodd;clip-rule:evenodd;stroke-linejoin:round;stroke-miterlimit:2;">
    <g id="Icon" transform="matrix(1,0,0,1,9e-05,-2.73598)">
        <path d="M228.002,3.483L226.787,5.685L225.231,8.569L224.281,10.24L223.257,12.023L220.828,15.934L219.462,18.057L217.944,20.297L216.312,22.613L214.528,24.966L212.591,27.355L210.505,29.824L208.265,32.329L205.873,34.836L203.292,37.376L200.559,39.921L197.562,42.462L194.449,44.969L191.146,47.476L187.58,49.867L183.859,52.256L179.913,54.608L175.737,56.848L171.334,59.015L166.702,61.099L161.806,63.075L156.72,64.934L151.33,66.602L145.712,68.198L139.829,69.639L141.044,70.212L142.258,70.74L143.549,71.273L144.954,71.766L146.319,72.221L147.687,72.639L149.129,73.019L150.571,73.359L152.052,73.665L153.532,73.927L155.088,74.157L156.644,74.307L158.162,74.462L159.719,74.535L161.275,74.574L162.869,74.574L164.464,74.5L166.057,74.385L167.69,74.232L169.283,74.004L170.878,73.739L172.471,73.399L174.028,73.019L175.622,72.563L177.141,72.031L178.734,71.46L180.291,70.817L181.809,70.094L183.29,69.297L184.77,68.463L186.251,67.553L187.654,66.567L187.161,67.363L186.592,68.274L185.946,69.259L185.227,70.362L184.392,71.5L183.517,72.713L182.53,73.966L181.468,75.332L180.329,76.702L179.114,78.104L177.823,79.548L176.458,80.991L175.015,82.47L173.459,83.951L171.865,85.391L170.194,86.91L168.41,88.351L166.589,89.794L164.653,91.235L162.641,92.606L160.592,93.969L158.504,95.26L156.265,96.513L153.95,97.726L151.597,98.828L149.167,99.893L146.663,100.841L144.081,101.715L141.423,102.474L138.729,103.12L135.959,103.688L133.074,104.105L133.567,104.408L135.009,105.17L136.071,105.622L137.324,106.116L138.046,106.345L138.805,106.612L139.639,106.839L140.512,107.027L141.385,107.218L142.335,107.407L143.322,107.558L144.422,107.671L145.523,107.789L146.663,107.862L149.091,107.862L150.344,107.789L151.635,107.597L152.999,107.448L154.367,107.18L155.847,106.875L157.289,106.532L158.769,106.077L160.288,105.587L159.226,106.989L158.2,108.356L157.062,109.608L155.961,110.822L154.747,111.922L153.608,112.948L152.432,113.934L151.217,114.847L150.04,115.68L148.826,116.478L147.611,117.201L146.396,117.844L145.181,118.489L143.966,119.059L142.715,119.59L141.5,120.049L140.323,120.426L139.147,120.766L137.97,121.108L136.793,121.375L135.655,121.604L134.516,121.832L133.415,122.019L132.276,122.134L131.214,122.248L130.19,122.321L129.202,122.402L128.215,122.439L126.393,122.439L124.723,122.362L122.863,124.37L121.155,126.461L119.524,128.624L118.042,130.902L116.715,133.219L115.499,135.608L114.437,138.036L113.488,140.468L112.615,143.046L111.893,145.629L111.249,148.249L110.718,150.907L110.262,153.602L109.92,156.295L109.617,158.952L109.427,161.686L109.312,164.418L109.274,167.112L109.312,169.807L109.427,172.465L109.578,175.123L109.807,177.741L110.109,180.323L110.413,182.865L110.755,185.408L111.135,187.876L111.553,190.226L112.008,192.581L112.464,194.782L112.957,196.984L113.488,199.109L113.983,201.083L112.691,198.958L110.982,196.188L109.996,194.516L108.934,192.81L107.832,190.873L106.731,188.783L105.631,186.585L104.455,184.153L103.278,181.613L102.14,178.918L101,176.07L99.938,173.071L98.875,169.92L97.888,166.623L96.977,163.128L96.142,159.484L95.42,155.724L94.813,151.815L94.358,147.678L93.98,143.428L93.789,138.987L93.751,134.47L93.903,129.764L94.207,124.868L94.738,119.855L95.497,114.655L96.446,109.303L97.623,103.763L99.103,98.144L100.811,92.3L99.71,93.058L98.57,93.893L97.47,94.768L96.37,95.677L95.308,96.626L94.244,97.652L93.22,98.714L92.194,99.778L91.17,100.919L90.22,102.094L89.272,103.232L88.322,104.484L87.489,105.736L86.578,107.065L85.78,108.431L84.983,109.837L84.223,111.242L83.541,112.644L82.896,114.127L82.288,115.605L81.719,117.125L81.226,118.679L80.77,120.273L80.353,121.832L79.745,125.096L79.555,126.767L79.404,128.433L79.327,130.144L79.327,131.849L79.404,133.598L79.555,135.302L79.1,134.47L78.569,133.521L78.036,132.462L77.467,131.32L76.898,130.029L76.292,128.589L75.646,127.107L75.039,125.549L74.393,123.88L73.786,122.134L73.217,120.311L72.647,118.378L72.078,116.366L71.584,114.317L71.091,112.188L70.674,109.987L70.294,107.671L69.99,105.396L69.686,103.002L69.496,100.651L69.383,98.184L69.307,95.642L69.345,93.096L69.459,90.518L69.648,87.935L69.99,85.279L70.409,82.657L70.902,80L71.547,77.307L72.306,74.574L73.217,71.878L74.279,69.186L73.786,69.489L72.42,70.362L71.471,71.046L70.447,71.878L69.876,72.373L69.307,72.942L68.7,73.509L68.092,74.157L67.448,74.88L66.841,75.638L66.195,76.434L65.55,77.269L64.904,78.178L64.297,79.168L63.689,80.156L63.082,81.253L62.513,82.392L61.981,83.571L61.451,84.786L60.956,86.149L60.501,87.52L60.121,88.961L59.743,90.477L59.399,92.073L58.717,90.439L58.109,88.846L57.579,87.252L57.086,85.659L56.706,84.139L56.401,82.622L56.137,81.103L55.945,79.62L55.833,78.142L55.756,76.702L55.718,75.297L55.756,73.892L55.833,72.525L55.945,71.196L56.137,69.867L56.326,68.619L56.591,67.363L56.857,66.184L57.162,65.008L57.502,63.833L57.883,62.695L58.262,61.593L59.097,59.543L59.514,58.597L59.97,57.644L60.425,56.736L60.881,55.898L61.792,54.305L62.665,52.904L61.867,50.207L60.956,47.7L59.856,45.237L58.641,42.843L57.313,40.489L55.871,38.214L54.276,36.051L52.606,33.922L50.86,31.911L49,29.939L47.027,28.041L45.016,26.217L42.926,24.474L40.764,22.802L38.563,21.209L36.285,19.613L34.046,18.134L31.731,16.732L29.34,15.362L26.986,14.075L24.633,12.86L22.241,11.758L19.85,10.658L17.535,9.632L15.182,8.606L12.866,7.695L10.626,6.86L8.349,6.064L6.148,5.344L4.022,4.659L1.973,4.053L0,3.483L2.466,3.445L5.73,3.368L9.678,3.368L11.879,3.406L14.27,3.483L16.738,3.633L19.355,3.861L22.165,4.165L25.089,4.547L28.087,4.999L31.276,5.607L34.539,6.328L37.841,7.166L41.295,8.151L44.863,9.327L48.507,10.62L52.188,12.096L55.984,13.695L59.817,15.556L63.727,17.602L67.752,19.88L71.698,22.422L75.759,25.154L79.897,28.153L83.998,31.383L88.171,34.91L92.309,38.708L96.484,42.802L100.696,47.208L100.583,45.839L100.432,44.476L100.241,43.108L99.976,41.665L99.71,40.263L99.369,38.858L98.99,37.414L98.496,36.011L98.041,34.57L97.508,33.126L96.939,31.723L96.333,30.318L95.686,28.874L94.965,27.511L94.207,26.105L93.409,24.736L92.574,23.41L91.702,22.079L90.752,20.791L89.766,19.463L88.702,18.207L87.678,16.993L85.325,14.718L84.072,13.616L82.819,12.554L81.491,11.566L80.086,10.62L78.682,9.706L77.203,8.797L75.646,8.001L74.052,7.278L74.999,7.278L76.063,7.316L77.316,7.393L78.607,7.466L80.011,7.621L81.491,7.771L83.085,8.001L84.756,8.266L86.502,8.569L88.322,8.909L90.22,9.364L92.156,9.823L94.169,10.352L96.218,10.92L98.306,11.566L100.469,12.289L102.595,13.049L104.795,13.919L106.921,14.871L109.123,15.893L111.362,16.993L113.564,18.207L115.727,19.501L117.891,20.903L120.055,22.422L122.181,23.978L124.231,25.688L126.28,27.473L128.292,29.366L130.227,31.383L132.087,33.504L133.947,35.783L133.947,35.216L133.871,33.581L133.757,32.444L133.529,31.077L133.415,30.357L133.226,29.56L132.998,28.764L132.771,27.891L132.465,27.015L132.125,26.105L131.745,25.154L131.327,24.169L130.834,23.181L130.303,22.158L129.734,21.132L129.088,20.068L128.404,18.968L127.646,17.907L126.811,16.844L125.9,15.744L124.951,14.68L123.888,13.577L122.825,12.516L121.612,11.49L123.356,11.678L125.027,11.984L126.658,12.289L128.253,12.631L129.772,13.087L131.29,13.577L132.732,14.112L134.137,14.68L135.464,15.288L136.755,15.971L137.97,16.654L139.147,17.375L140.285,18.134L141.347,18.892L142.411,19.688L143.397,20.561L144.385,21.4L145.295,22.235L146.168,23.105L147.003,23.94L147.8,24.815L148.522,25.688L149.242,26.559L149.888,27.432L150.535,28.308L151.104,29.142L151.672,30.012L152.166,30.773L153.077,32.409L153.873,33.884L156.796,34.457L159.642,34.872L162.49,35.098L165.337,35.216L168.183,35.137L170.954,34.986L173.688,34.645L176.419,34.228L179.076,33.657L181.733,32.976L184.352,32.217L186.934,31.344L189.477,30.392L191.981,29.331L194.411,28.231L196.802,27.015L199.156,25.762L201.509,24.436L203.747,23.068L205.988,21.661L208.152,20.186L210.238,18.665L212.288,17.149L214.299,15.629L216.198,14.075L218.096,12.516L219.88,11.038L223.372,7.921L224.965,6.405L226.522,4.926L228.002,3.483Z"/>
    </g>
    <g id="Arcada">
        <g id="A" transform="matrix(1,0,0,1,9e-05,-8.96598)">
            <path d="M252.95,103.982L269.183,70.93L280.593,104.03L252.95,103.982ZM229.54,109.442L225.324,117.434L218.838,129.778L217.229,132.723L215.253,136.876L205.584,155.319L229.989,155.319L232.036,150.343L234.085,145.693L234.559,144.499L236.075,141.052L238.123,136.696L240.04,132.74L240.228,132.347L242.275,128.077L244.381,124.113L246.43,120.319L284.543,120.319L286.136,124.111L287.671,128.167L289.208,132.358L289.359,132.761L293.588,145.384L294.953,150.352L296.262,155.319L319.983,155.319L316.297,144.903L315.375,142.166L311.893,132.858L310.711,129.677L303.217,109.475L301.687,105.081L297.001,92.334L292.563,79.679L288.183,68.029L283.974,55.361L257.123,55.371L250.923,68.042L244.665,80.24L238.293,92.621L231.674,105.414L229.54,109.555"/>
        </g>
        <g id="A1" serif:id="A" transform="matrix(1,0,0,1,9e-05,-8.95618)">
            <path d="M546.277,104L562.49,70.92L573.903,104.024L546.277,104ZM596.524,109.432L594.283,103.375L590.308,92.452L585.927,80.194L581.634,68.162L577.352,55.378L550.43,55.361L544.228,67.821L538.066,80.09L531.845,92.204L525.394,104.596L522.687,109.816L522.886,109.432L518.744,117.425L512.145,129.768L510.562,132.712L505.603,141.943L504.286,144.894L498.891,155.309L523.352,155.309L525.399,150.333L527.39,145.683L527.88,144.489L529.439,141.042L533.353,132.747L533.535,132.346L535.639,128.071L537.688,124.105L539.793,120.309L577.906,120.309L579.441,124.101L580.978,128.157L582.515,132.348L582.667,132.75L583.993,136.614L585.53,140.928L586.631,144.359L588.316,150.334L589.567,155.309L613.291,155.309L609.603,144.894L608.681,142.156L605.242,132.848L604.075,129.667L599.41,117.23L596.524,109.432Z"/>
        </g>
        <g id="A2" serif:id="A" transform="matrix(1,0,0,1,9e-05,-8.98218)">
            <path d="M757.952,104.026L774.166,70.946L785.471,103.965L757.952,104.026ZM794.339,132.738L796.331,138.56L798.249,144.38L798.571,145.381L799.934,150.359L801.187,155.335L824.965,155.335L821.234,144.92L820.302,142.182L816.861,132.874L815.693,129.693L808.289,109.734L806.229,104.169L802.043,92.803L792.931,67.099L788.923,55.361L762.105,55.388L755.961,67.735L749.379,80.72L743.598,92.077L737.459,103.874L734.522,109.458L730.307,117.451L723.821,129.794L722.225,132.738L715.916,144.92L710.567,155.335L734.971,155.335L741.115,141.541L745.028,133.009L745.21,132.489L749.306,124.193L751.411,120.335L789.525,120.335L791.118,124.127L792.653,128.183L794.189,132.374L794.339,132.776"/>
        </g>
        <g id="D" transform="matrix(1,0,0,1,9e-05,-8.96778)">
            <path d="M696.271,102.524L696.232,103.726L696.061,105.433L695.802,107.255L695.562,108.962L695.49,109.443L694.911,112.487L694.52,114.194L693.954,115.843L693.385,117.493L692.703,119.086L691.963,120.679L691.112,122.215L690.202,123.693L689.233,125.116L688.152,126.481L687.016,127.791L685.708,129.097L684.342,130.294L682.92,131.375L681.384,132.454L680.939,132.725L679.791,133.42L678.029,134.331L676.207,135.184L674.272,135.924L672.226,136.55L670.121,137.119L667.844,137.631L665.456,137.972L663.01,138.257L660.865,138.396L658.347,138.472L641.792,138.485L642.035,132.962L643.016,109.845L644.635,71.121L671.713,71.131L673.532,71.392L675.241,71.671L676.89,71.884L678.483,72.189L679.96,72.627L681.384,73.187L682.693,73.751L683.944,74.433L685.139,75.114L686.332,75.91L687.357,76.707L688.324,77.559L689.233,78.469L690.087,79.55L690.885,80.574L691.622,81.597L692.306,82.735L692.875,83.873L693.444,85.011L693.955,86.206L694.411,87.4L694.809,88.651L695.093,89.903L695.377,91.154L695.662,92.406L695.834,93.714L696.004,94.967L696.174,96.332L696.232,97.64L696.289,99.443L696.271,102.524ZM717.412,96.84L717.221,93.929L716.921,91.076L716.521,88.633L716.098,86.546L715.494,84.101L714.765,81.769L713.973,79.607L713.065,77.444L712.102,75.454L711.021,73.577L709.826,71.813L708.576,70.106L707.211,68.515L705.845,67.035L704.31,65.67L702.718,64.36L701.066,63.166L699.36,61.971L697.597,61.005L695.72,60.039L693.9,59.241L691.963,58.445L689.916,57.818L687.867,57.192L685.708,56.739L683.545,56.283L681.384,55.976L676.832,55.487L674.556,55.43L672.167,55.372L623.757,55.362L623.644,71.823L623.474,78.559L623.247,85.709L623.02,92.87L622.734,100.118L622.391,107.013L622.29,109.466L622.109,113.863L621.367,126.601L620.964,132.728L620.629,137.804L620.151,144.366L619.945,147.728L619.321,155.32L661.985,155.32L665.511,154.668L668.867,154.227L672.226,153.753L675.352,153.227L678.425,152.627L681.327,151.927L684.116,151.066L686.901,150.149L689.461,149.069L691.909,147.928L694.24,146.678L696.401,145.31L697.698,144.365L698.507,143.775L700.439,142.183L702.319,140.533L704.139,138.769L705.789,136.949L707.324,135.015L708.746,133.024L708.936,132.725L710.054,130.976L711.306,128.813L712.386,126.481L713.355,124.148L714.265,121.759L715.002,119.313L715.685,116.81L716.256,114.194L716.711,111.52L716.969,109.443L717.052,108.79L717.352,105.804L717.48,103.765L717.502,100.245L717.412,96.84Z"/>
        </g>
        <g id="C" transform="matrix(1,0,0,1,9e-05,-10.033)">
            <path d="M437.608,110.509L437.566,109.799L437.509,107.807L437.566,105.703L437.738,103.654L437.964,101.607L438.251,99.673L438.705,97.739L439.217,95.804L439.786,93.984L440.467,92.22L441.207,90.57L442.061,88.921L442.97,87.328L443.938,85.85L445.019,84.427L446.158,83.005L447.351,81.697L448.603,80.445L450.024,79.251L451.389,78.111L452.87,77.145L454.405,76.179L455.998,75.268L457.533,74.414L459.242,73.675L461.004,72.992L462.768,72.424L464.645,71.855L466.522,71.401L468.513,71.059L470.504,70.775L472.496,70.546L474.543,70.433L476.648,70.376L478.127,70.433L479.605,70.49L481.141,70.603L482.622,70.717L484.099,70.888L485.579,71.115L487.058,71.342L488.479,71.626L491.437,72.253L494.283,72.936L497.184,73.732L500.027,74.529L499.118,57.462L495.991,56.893L492.804,56.326L489.618,55.869L486.432,55.472L483.19,55.13L480.004,54.846L476.876,54.733L473.69,54.676L470.504,54.733L467.431,54.903L464.36,55.13L461.402,55.529L458.501,56.041L455.714,56.666L452.926,57.349L450.254,58.145L447.579,59.112L445.076,60.137L442.629,61.273L440.241,62.526L437.964,63.948L435.802,65.371L433.699,66.963L431.649,68.613L429.774,70.376L428.009,72.253L426.302,74.244L424.711,76.293L423.289,78.397L421.922,80.729L420.671,83.118L419.534,85.621L418.567,88.181L417.657,90.855L416.918,93.643L416.233,96.601L415.78,99.558L415.38,102.631L415.211,105.76L415.096,109.003L415.156,110.509L415.211,111.96L415.38,114.918L415.78,117.649L416.233,120.322L416.918,122.938L417.657,125.384L418.509,127.832L419.534,130.163L420.615,132.325L421.447,133.79L421.809,134.431L423.118,136.421L424.597,138.355L426.076,140.177L427.725,141.882L429.432,143.532L431.195,145.067L431.639,145.431L433.073,146.604L435.063,147.912L437.113,149.163L439.273,150.358L441.435,151.441L443.712,152.407L445.986,153.316L448.375,154.057L450.878,154.796L453.381,155.365L455.884,155.876L458.387,156.331L461.004,156.615L463.677,156.902L466.35,157.014L469.083,157.072L472.552,157.014L475.966,156.843L479.379,156.615L482.676,156.274L485.977,155.876L489.277,155.422L492.519,154.908L495.706,154.397L497.087,145.431L498.379,137.047L495.251,137.9L492.121,138.697L488.879,139.436L485.693,140.062L484.044,140.346L482.452,140.575L480.799,140.801L479.208,140.971L477.557,141.143L475.908,141.258L474.259,141.313L472.666,141.313L470.675,141.258L468.796,141.2L466.92,141.029L465.043,140.744L463.281,140.461L461.574,140.062L459.867,139.606L458.216,139.096L456.738,138.527L455.202,137.9L453.722,137.162L452.3,136.421L450.935,135.567L449.57,134.658L448.499,133.79L448.375,133.691L447.181,132.667L446.043,131.586L445.019,130.448L443.995,129.197L443.086,127.889L442.231,126.524L441.435,125.157L440.697,123.678L440.07,122.142L439.443,120.551L438.932,118.957L438.534,117.25L438.135,115.488L437.909,113.667L437.681,111.731L437.608,110.509Z"/>
        </g>
        <g id="R" transform="matrix(1,0,0,1,9e-05,-10.036)">
            <path d="M380.088,110.512L379.828,110.03L381.306,109.744L382.786,109.403L384.207,109.006L385.574,108.607L386.939,108.152L388.247,107.696L389.555,107.184L390.749,106.617L392.001,106.046L393.195,105.421L394.333,104.852L395.414,104.113L396.496,103.373L397.52,102.634L399.454,100.927L400.363,100.016L401.159,99.107L401.956,98.083L402.696,97.058L403.378,95.922L404.005,94.841L404.573,93.646L405.085,92.451L405.54,91.2L405.938,89.89L406.336,88.526L406.622,87.161L406.848,85.681L407.02,84.201L407.077,82.666L407.134,81.074L407.077,79.311L406.962,77.717L406.735,76.182L406.45,74.702L406.109,73.281L405.654,71.914L405.142,70.606L404.516,69.412L403.947,68.274L403.208,67.136L402.412,66.113L401.558,65.145L400.648,64.234L399.681,63.325L398.6,62.529L397.52,61.79L396.381,61.107L395.187,60.48L393.993,59.855L392.741,59.342L391.433,58.832L388.702,58.034L385.857,57.352L384.379,57.125L382.842,56.896L381.251,56.726L379.713,56.613L378.177,56.499L376.642,56.441L330.392,56.441L330.279,68.843L329.937,87.388L329.768,93.589L329.54,99.846L329.313,105.934L329.102,110.512L328.742,118.335L328.345,124.478L328.003,130.735L327.775,133.793L327.549,136.823L327.037,142.966L326.833,145.434L326.525,149.166L325.956,155.31L348.312,155.31L348.482,147.972L348.539,145.434L348.71,137.732L348.841,133.793L349.109,125.729L349.45,112.703L349.518,110.512L349.848,99.96L350.247,88.127L350.531,78.343L350.758,71.744L352.692,71.574L354.684,71.404L356.617,71.289L358.609,71.175L360.6,71.118L362.534,71.062L364.524,71.005L368.28,71.005L369.987,71.062L371.694,71.175L373.342,71.404L374.992,71.629L376.642,72.028L377.382,72.256L378.121,72.483L378.861,72.768L379.542,73.11L380.226,73.451L380.909,73.848L381.534,74.247L382.102,74.702L382.729,75.214L383.753,76.352L384.207,76.978L384.606,77.66L384.948,78.343L385.232,79.139L385.517,79.993L385.687,80.902L385.857,81.813L385.971,82.838L385.971,84.998L385.857,86.136L385.687,87.217L385.517,88.242L385.232,89.208L384.891,90.176L384.549,91.085L384.152,91.939L383.695,92.735L383.183,93.533L382.615,94.272L381.933,94.954L381.306,95.637L380.623,96.262L379.941,96.888L379.202,97.457L378.404,97.969L377.609,98.425L376.813,98.879L375.958,99.277L375.049,99.619L374.14,99.96L373.172,100.302L372.261,100.53L371.238,100.756L370.27,100.984L369.246,101.154L368.222,101.268L367.199,101.381L366.174,101.44L365.095,101.496L364.012,101.553L362.932,101.496L361.795,101.44L360.713,101.381L359.576,101.268L358.494,101.098L357.357,100.984L356.219,100.814L355.139,100.642L358.438,107.354L360.003,110.512L361.795,114.125L365.095,120.895L368.45,127.665L370.1,131.134L371.385,133.793L371.694,134.434L373.229,137.903L374.765,141.316L376.3,144.787L376.551,145.434L377.667,148.314L379.088,151.784L380.453,155.31L404.346,155.31L398.998,145.434L392.695,133.793L380.088,110.512Z"/>
        </g>
    </g>
</svg>
